
        <svg xmlns="http://www.w3.org/2000/svg" xmlns:xlink="http://www.w3.org/1999/xlink" version="1.1" width="3171.4285714285716" 
        height="2326.110359622231" viewBox="0 0 3171.4285714285716 2326.110359622231">
			<rect fill="#262f47" width="3171.4285714285716" height="2326.110359622231"/>
			<g transform="scale(8.571428571428571) translate(10, 10)">
				<defs id="SvgjsDefs7328"><linearGradient id="SvgjsLinearGradient7335"><stop id="SvgjsStop7336" stop-color="#ef4136" offset="0"></stop><stop id="SvgjsStop7337" stop-color="#fbb040" offset="1"></stop></linearGradient><linearGradient id="SvgjsLinearGradient7338"><stop id="SvgjsStop7339" stop-color="#ef4136" offset="0"></stop><stop id="SvgjsStop7340" stop-color="#fbb040" offset="1"></stop></linearGradient></defs><g id="SvgjsG7329" featureKey="symbolFeature-0" transform="matrix(0.19943019943019946,0,0,0.19943019943019946,105.1994301994302,14.1994301994302)" fill="#f5793b"><g xmlns="http://www.w3.org/2000/svg"><title>background</title><rect x="-1" y="-1" width="702" height="702" style="fill: none;"></rect></g><g xmlns="http://www.w3.org/2000/svg"><title>Layer 1</title><g><g><path d="M222,158.3c-31,0.7-57.5,21-79.5,60.8c-23.1,44.8-34.5,94.6-34.3,149.4c0.4,6.6,1.1,7.2,2.2,1.9     c9.3-40.3,19-71.8,29.1-94.6c9.9-22.9,20.9-41.7,32.9-56.2c27.6-32.1,51.5-37.3,71.8-15.6c22.2,25.6,34,68.8,35.4,129.4     c-1.2,81.5-11.9,143.1-32.1,185c-25.3,51-51.3,68-77.7,50.8c-36-28.7-56-92.3-60-190.6c-1.4-3.4-2.7-0.9-3.7,7.5     c-1.9,10.2-3.2,21.4-4,33.3c-3,53.4,4.1,98.7,21.2,135.9c17.5,35.3,40.8,53.2,69.9,53.8c31.4-0.5,60-21,85.9-61.7     c25.8-42.5,42.4-94.3,49.7-155.6c2.7-65.2-6.1-120.7-26.3-166.5c-20.4-43.6-47.1-66-80-67.2"></path></g><g><path d="M452,134.1c-16.1-26.4-46.9-39.3-92.4-38.5c-50.3,2.4-99.2,17.4-146.6,45c-5.5,3.6-5.7,4.6-0.6,2.9     c39.6-12.1,71.7-19.5,96.4-22.1c24.8-2.9,46.5-2.8,65.1,0.4c41.6,7.9,58.1,26,49.4,54.4c-11.1,32-42.6,63.8-94.4,95.4     c-71.2,39.7-129.9,61.3-176.2,64.7c-56.9,3.6-84.5-10.4-82.8-41.9C77,248.8,122,199.7,205.1,147c2.2-2.9-0.6-2.7-8.3,0.6     c-9.8,3.5-20.1,7.9-30.9,13.2c-47.7,24.1-83.5,52.9-107.1,86.3c-21.8,32.8-25.7,62-11.7,87.4c16.1,26.9,48.2,41.4,96.4,43.5     c49.7,1.1,102.9-10.4,159.6-34.8c57.8-30.3,101.5-65.6,131-106c27.6-39.5,33.6-73.8,18.2-102.9"></path></g><g><path d="M588,321.2c14.8-27.2,10.6-60.3-12.9-99.3c-27.3-42.4-64.7-77.2-112.3-104.4c-5.9-3-6.8-2.7-2.8,0.9     c30.3,28.2,52.7,52.4,67.4,72.4c14.9,20.1,25.7,38.9,32.2,56.6c14,40,6.5,63.3-22.4,69.9c-33.3,6.4-76.5-5-129.8-34     c-69.9-41.8-118-81.9-144.2-120.2c-31.5-47.5-33.2-78.4-5.1-92.7c42.9-16.8,107.9-2.3,195.1,43.4c3.6,0.4,2.1-1.9-4.7-6.9     c-7.9-6.8-16.9-13.5-26.9-20.2c-44.7-29.3-87.5-45.8-128.3-49.6c-39.3-2.5-66.5,8.7-81.6,33.6c-15.3,27.4-11.8,62.5,10.5,105.2     c23.9,43.6,60.5,83.9,109.9,120.8c55.1,34.9,107.6,55.1,157.3,60.4c48,4.1,80.8-7.8,98.2-35.7"></path></g><g><path d="M494,532.5c31-0.7,57.5-21,79.5-60.8c23.1-44.8,34.5-94.6,34.3-149.4c-0.4-6.6-1.1-7.2-2.2-1.9     c-9.3,40.3-19,71.8-29.1,94.6c-9.9,22.9-20.9,41.7-32.9,56.2c-27.6,32.1-51.5,37.3-71.8,15.6c-22.2-25.6-34-68.8-35.4-129.4     c1.2-81.5,11.9-143.1,32.1-185c25.3-51,51.3-68,77.7-50.8c36,28.7,56,92.3,60,190.6c1.4,3.4,2.7,0.9,3.7-7.5     c1.9-10.2,3.2-21.4,4-33.3c3-53.4-4.1-98.7-21.2-135.9c-17.5-35.3-40.8-53.2-69.9-53.8c-31.4,0.5-60,21-85.9,61.7     c-25.8,42.5-42.4,94.3-49.7,155.6c-2.7,65.2,6.1,120.7,26.3,166.5c20.4,43.6,47.1,66,80,67.2"></path></g><g><path d="M128,369.6c-14.8,27.2-10.6,60.3,12.9,99.3c27.3,42.4,64.7,77.2,112.3,104.4c5.9,3,6.8,2.7,2.8-0.9     c-30.3-28.2-52.7-52.4-67.4-72.4c-14.9-20.1-25.7-38.9-32.2-56.6c-14-40-6.5-63.3,22.4-69.9c33.3-6.4,76.5,5,129.8,34     c69.9,41.8,118,81.9,144.2,120.2c31.5,47.5,33.2,78.4,5.1,92.7c-42.9,16.8-107.9,2.3-195.1-43.4c-3.6-0.4-2.1,1.9,4.7,6.9     c7.9,6.8,16.9,13.5,26.9,20.2c44.7,29.3,87.5,45.8,128.3,49.6c39.3,2.5,66.5-8.7,81.6-33.6c15.3-27.4,11.8-62.5-10.5-105.2     c-23.9-43.6-60.5-83.9-109.9-120.8c-55.1-34.9-107.6-55.1-157.3-60.4c-48-4.1-80.8,7.8-98.2,35.7"></path></g><g><path d="M264,556.7c16.1,26.4,46.9,39.3,92.4,38.5c50.3-2.4,99.2-17.4,146.6-45c5.5-3.6,5.7-4.6,0.6-2.9     c-39.6,12.1-71.7,19.5-96.4,22.1c-24.8,2.9-46.5,2.8-65.1-0.4c-41.6-7.9-58.1-26-49.4-54.4c11.1-32,42.6-63.8,94.4-95.4     c71.2-39.7,129.9-61.3,176.2-64.7c56.9-3.6,84.5,10.4,82.8,41.9c-6.9,45.5-51.9,94.6-135.1,147.3c-2.2,2.9,0.6,2.7,8.3-0.6     c9.8-3.5,20.1-7.9,30.9-13.2c47.7-24.1,83.5-52.9,107.1-86.3c21.8-32.8,25.7-62,11.7-87.4c-16.1-26.9-48.2-41.4-96.3-43.5     c-49.7-1.1-102.9,10.4-159.6,34.8c-57.8,30.3-101.5,65.6-131,106c-27.6,39.5-33.6,73.8-18.2,102.9"></path></g></g></g></g><g id="SvgjsG7330" featureKey="nameFeature-0" transform="matrix(1.8980476281065888,0,0,1.8980476281065888,-1.138829300911663,136.69197020332666)" fill="url(#SvgjsLinearGradient7335)"><path d="M11.64 40 l-2.12 0 l0 -25.44 l-8.92 0 l0 -1.96 l19.96 0 l0 1.96 l-8.92 0 l0 25.44 z M31.68 14.559999999999999 l-6.4 0 l0 12.72 l6.2 0 c5.24 0 7.8 -2.8 7.8 -6.32 c0 -3.6 -2.6 -6.4 -7.6 -6.4 z M25.28 29.16 l0 10.84 l-2.12 0 l0 -27.4 l9 0 c5.76 0 9.24 3.56 9.24 8.32 c0 4.6 -3.68 8.24 -9.12 8.24 l-4 0 l13.6 10.84 l-3.16 0 z M54.52 40.4 c-6.4 0 -10.52 -4.24 -10.52 -10.96 l0 -16.84 l2.12 0 l0 16.64 c0 5.8 3.12 9.16 8.4 9.16 s8.4 -3.36 8.4 -9.16 l0 -16.64 l2.12 0 l0 16.84 c0 6.72 -4.12 10.96 -10.52 10.96 z M78.84 40.4 c-6.4 0 -10.32 -2.84 -11 -8.6 l2.12 0 c0.52 4.32 3.72 6.68 8.88 6.64 c5.12 0 7.84 -2.24 7.84 -5.88 c0 -4.08 -4.08 -4.76 -8.32 -5.56 c-4.56 -0.84 -9.32 -1.8 -9.32 -7.36 c0 -4.36 3.6 -7.28 9.08 -7.28 c5.84 0 9.56 3.08 9.88 7.88 l-2.08 0 c-0.32 -3.08 -2.8 -5.92 -7.92 -5.92 c-4.4 0 -6.92 2.24 -6.92 5.36 c0 3.92 3.88 4.6 8 5.36 c4.72 0.88 9.72 1.8 9.72 7.6 c0 4.28 -3.12 7.76 -9.96 7.76 z M101.8 40 l-2.12 0 l0 -25.44 l-8.92 0 l0 -1.96 l19.96 0 l0 1.96 l-8.92 0 l0 25.44 z M126.67999999999999 14.32 c-6.76 0 -12.04 5.08 -12.04 11.96 s5.28 12.04 12.04 12.04 c4.8 0 8.04 -2.2 10.2 -5.8 l1.64 1.08 c-2.44 4.12 -6.28 6.72 -11.84 6.72 c-7.8 0 -14.16 -5.92 -14.16 -14.04 s6.36 -14 14.16 -14 c5.56 0 9.52 2.64 11.92 6.76 l-1.72 1.12 c-2.16 -3.64 -5.52 -5.84 -10.2 -5.84 z M157.95999999999998 30.759999999999998 l-6.04 -15.4 l-6.08 15.4 l12.12 0 z M161.6 40 l-2.84 -7.24 l-13.72 0 l-2.84 7.24 l-2.16 0 l10.84 -27.4 l2.12 0 l10.88 27.4 l-2.28 0 z M174.79999999999998 14.559999999999999 l-6.4 0 l0 12.72 l6.2 0 c5.24 0 7.8 -2.8 7.8 -6.32 c0 -3.6 -2.6 -6.4 -7.6 -6.4 z M168.39999999999998 29.16 l0 10.84 l-2.12 0 l0 -27.4 l9 0 c5.76 0 9.24 3.56 9.24 8.32 c0 4.6 -3.68 8.24 -9.12 8.24 l-4 0 l13.6 10.84 l-3.16 0 z"></path></g><g id="SvgjsG7331" featureKey="sloganFeature-0" transform="matrix(1.5401542480836077,0,0,1.5401542480836077,33.121011956874526,220.45324403750976)" fill="url(#SvgjsLinearGradient7338)"><path d="M9.92 12.940000000000001 l3.14 7.06 l-1.8 0 c-0.14 0 -0.32 -0.12 -0.38 -0.24 l-2.84 -6.42 l-4.56 0 c-0.2 0 -0.38 0.18 -0.38 0.38 l0 6.02 c0 0.14 -0.12 0.26 -0.26 0.26 l-1.62 0 l0 -14.76 c0 -0.14 0.12 -0.26 0.26 -0.26 l1.62 0 l0 7.06 c0.2 -0.24 0.58 -0.42 1 -0.42 l4.22 0 c0.84 0 1.52 -0.68 1.52 -1.52 l0 -4.86 c0 -0.14 0.12 -0.26 0.28 -0.26 l1.62 0 l0 4.96 c0 1.3 -0.74 2.44 -1.82 3 z M18 20.08 c-1.88 0 -3.4 -1.52 -3.4 -3.4 l0 -11.7 l1.62 0 c0.14 0 0.26 0.12 0.26 0.26 l0 11.6 c0 0.84 0.68 1.52 1.52 1.52 l4.52 0 c0.84 0 1.52 -0.68 1.52 -1.52 l0 -11.6 c0 -0.14 0.12 -0.26 0.26 -0.26 l1.62 0 l0 11.7 c0 1.88 -1.54 3.4 -3.4 3.4 l-4.52 0 z M36.68000000000001 13.7 l1.82 3.58 c-0.2 -1.56 -0.2 -2.82 -0.3 -4.24 l0 -7.8 c0 -0.14 0.12 -0.26 0.26 -0.26 l1.62 0 l0 15.02 l-1.74 0 c-0.14 0 -0.32 -0.12 -0.38 -0.24 l-6.84 -12.74 c-0.1 -0.18 -0.34 -0.32 -0.54 -0.32 l-0.34 0 l0 13.04 c0 0.14 -0.12 0.26 -0.26 0.26 l-1.62 0 l0 -14.76 c0 -0.14 0.12 -0.26 0.26 -0.26 l2.28 0 c0.64 0 1.4 0.46 1.7 1.02 z M41.92 4.98 l10.64 0 l0 1.46 c0 0.14 -0.12 0.26 -0.26 0.26 l-4.28 0 l0 13.04 c0 0.14 -0.1 0.26 -0.26 0.26 l-1.62 0 l0 -13.3 l-4.48 0 l0 -1.46 c0 -0.14 0.12 -0.26 0.26 -0.26 z M62.00000000000001 20.08 l-4.52 0 c-1.88 0 -3.4 -1.52 -3.4 -3.4 l0 -8.38 c0 -1.88 1.52 -3.4 3.4 -3.4 l4.52 0 c1.86 0 3.4 1.52 3.4 3.4 l0 8.38 c0 1.88 -1.54 3.4 -3.4 3.4 z M57.480000000000004 6.619999999999999 c-0.84 0 -1.52 0.68 -1.52 1.52 l0 8.7 c0 0.84 0.68 1.52 1.52 1.52 l4.52 0 c0.84 0 1.52 -0.68 1.52 -1.52 l0 -8.7 c0 -0.84 -0.68 -1.52 -1.52 -1.52 l-4.52 0 z M67.22000000000001 4.98 l10.64 0 l0 1.46 c0 0.14 -0.12 0.26 -0.26 0.26 l-4.28 0 l0 13.04 c0 0.14 -0.1 0.26 -0.26 0.26 l-1.62 0 l0 -13.3 l-4.48 0 l0 -1.46 c0 -0.14 0.12 -0.26 0.26 -0.26 z M86.30000000000001 5.119999999999999 l5.24 14.88 l-1.64 0 c-0.18 0 -0.32 -0.12 -0.36 -0.26 l-1.34 -3.86 l-7.64 0 l-1.34 3.86 c-0.04 0.14 -0.2 0.26 -0.36 0.26 l-1.64 0 l4.88 -13.9 c0.24 -0.66 0.86 -1.12 1.58 -1.12 l2.38 0 c0.1 0 0.2 0.06 0.24 0.14 z M81.16000000000001 14.16 l6.44 0 l-2.6 -7.46 l-0.98 0 c-0.16 0 -0.3 0.1 -0.36 0.26 z M95.02000000000001 12.8 l-0.04 0 l0 6.94 c0 0.14 -0.12 0.26 -0.26 0.26 l-1.62 0 l0 -13.86 c0 -0.64 0.52 -1.16 1.16 -1.16 l6.28 0 c1.88 0 3.4 1.18 3.4 3.22 l0 1.94 c0 1.76 -1.26 2.72 -2.72 3.1 l3.2 6.76 l-1.74 0 c-0.14 0 -0.3 -0.12 -0.36 -0.24 l-3.04 -6.42 l-2.56 0 l-0.58 0 c-0.56 0 -0.98 -0.16 -1.12 -0.54 z M95.36 11.62 l5.18 0 c0.84 0 1.52 -0.68 1.52 -1.52 l0 -1.88 c0 -0.84 -0.68 -1.52 -1.52 -1.52 l-5.18 0 c-0.22 0 -0.38 0.18 -0.38 0.38 l0 4.16 c0 0.22 0.18 0.38 0.38 0.38 z M114.74000000000001 12.940000000000001 l3.14 7.06 l-1.8 0 c-0.14 0 -0.32 -0.12 -0.38 -0.24 l-2.84 -6.42 l-4.56 0 c-0.2 0 -0.38 0.18 -0.38 0.38 l0 6.02 c0 0.14 -0.12 0.26 -0.26 0.26 l-1.62 0 l0 -14.76 c0 -0.14 0.12 -0.26 0.26 -0.26 l1.62 0 l0 7.06 c0.2 -0.24 0.58 -0.42 1 -0.42 l4.22 0 c0.84 0 1.52 -0.68 1.52 -1.52 l0 -4.86 c0 -0.14 0.12 -0.26 0.28 -0.26 l1.62 0 l0 4.96 c0 1.3 -0.74 2.44 -1.82 3 z M127.54 5.119999999999999 l5.24 14.88 l-1.64 0 c-0.18 0 -0.32 -0.12 -0.36 -0.26 l-1.34 -3.86 l-7.64 0 l-1.34 3.86 c-0.04 0.14 -0.2 0.26 -0.36 0.26 l-1.64 0 l4.88 -13.9 c0.24 -0.66 0.86 -1.12 1.58 -1.12 l2.38 0 c0.1 0 0.2 0.06 0.24 0.14 z M122.4 14.16 l6.44 0 l-2.6 -7.46 l-0.98 0 c-0.16 0 -0.3 0.1 -0.36 0.26 z M134.24 18.28 l7.4 0 c0.84 0 1.48 -0.68 1.48 -1.52 l0 -1.82 c0 -0.2 -0.16 -0.42 -0.36 -0.48 l-7.68 -2.56 c-0.6 -0.2 -1.1 -0.88 -1.1 -1.52 l0 -2.38 c0 -1.88 1.52 -3.02 3.4 -3.02 l7.12 0 l0 1.46 c0 0.14 -0.1 0.26 -0.26 0.26 l-6.86 0 c-0.84 0 -1.54 0.54 -1.54 1.38 l0 1.94 c0 0.22 0.16 0.44 0.36 0.5 l7.68 2.54 c0.6 0.2 1.04 0.9 1.04 1.54 l0 2.14 c0 1.88 -1.42 3.26 -3.28 3.26 l-7.66 0 l0 -1.46 c0 -0.16 0.12 -0.26 0.26 -0.26 z M146.48000000000002 4.98 l10.64 0 l0 1.46 c0 0.14 -0.12 0.26 -0.26 0.26 l-4.28 0 l0 13.04 c0 0.14 -0.1 0.26 -0.26 0.26 l-1.62 0 l0 -13.3 l-4.48 0 l0 -1.46 c0 -0.14 0.12 -0.26 0.26 -0.26 z M162.08 20.08 c-1.88 0 -3.4 -1.52 -3.4 -3.4 l0 -11.7 l1.62 0 c0.14 0 0.26 0.12 0.26 0.26 l0 11.6 c0 0.84 0.68 1.52 1.52 1.52 l4.52 0 c0.84 0 1.52 -0.68 1.52 -1.52 l0 -11.6 c0 -0.14 0.12 -0.26 0.26 -0.26 l1.62 0 l0 11.7 c0 1.88 -1.54 3.4 -3.4 3.4 l-4.52 0 z M172.34 18.28 l7.4 0 c0.84 0 1.48 -0.68 1.48 -1.52 l0 -1.82 c0 -0.2 -0.16 -0.42 -0.36 -0.48 l-7.68 -2.56 c-0.6 -0.2 -1.1 -0.88 -1.1 -1.52 l0 -2.38 c0 -1.88 1.52 -3.02 3.4 -3.02 l7.12 0 l0 1.46 c0 0.14 -0.1 0.26 -0.26 0.26 l-6.86 0 c-0.84 0 -1.54 0.54 -1.54 1.38 l0 1.94 c0 0.22 0.16 0.44 0.36 0.5 l7.68 2.54 c0.6 0.2 1.04 0.9 1.04 1.54 l0 2.14 c0 1.88 -1.42 3.26 -3.28 3.26 l-7.66 0 l0 -1.46 c0 -0.16 0.12 -0.26 0.26 -0.26 z"></path></g>
			</g>
		</svg>
	