<?xml version="1.0" encoding="UTF-8" standalone="no"?>
<svg
   version="1.1"
   width="3171.4285714285716"
   height="3171.4285714285716"
   viewBox="0 0 3171.4285714285716 3171.4285714285716"
   id="svg11"
   sodipodi:docname="trustcar_logo_app.svg"
   inkscape:version="1.3 (0e150ed, 2023-07-21)"
   xmlns:inkscape="http://www.inkscape.org/namespaces/inkscape"
   xmlns:sodipodi="http://sodipodi.sourceforge.net/DTD/sodipodi-0.dtd"
   xmlns:xlink="http://www.w3.org/1999/xlink"
   xmlns="http://www.w3.org/2000/svg"
   xmlns:svg="http://www.w3.org/2000/svg">
  <defs
     id="defs11">
    <linearGradient
       inkscape:collect="always"
       xlink:href="#SvgjsLinearGradient7335"
       id="linearGradient26"
       gradientTransform="scale(2.5607831,0.39050554)"
       x1="0.23430332"
       y1="31.446417"
       x2="72.243525"
       y2="31.446417"
       gradientUnits="userSpaceOnUse" />
    <linearGradient
       inkscape:collect="always"
       xlink:href="#SvgjsLinearGradient7335"
       id="linearGradient27"
       gradientTransform="scale(2.5607831,0.39050554)"
       x1="0.23430332"
       y1="31.446417"
       x2="72.243525"
       y2="31.446417"
       gradientUnits="userSpaceOnUse" />
    <linearGradient
       inkscape:collect="always"
       xlink:href="#SvgjsLinearGradient7338"
       id="linearGradient28"
       gradientTransform="scale(3.4606769,0.28896081)"
       x1="0.35253219"
       y1="16.957317"
       x2="52.885607"
       y2="16.957317"
       gradientUnits="userSpaceOnUse" />
    <linearGradient
       inkscape:collect="always"
       xlink:href="#SvgjsLinearGradient7338"
       id="linearGradient29"
       gradientTransform="scale(3.4606769,0.28896081)"
       x1="0.35253219"
       y1="16.957317"
       x2="52.885607"
       y2="16.957317"
       gradientUnits="userSpaceOnUse" />
  </defs>
  <sodipodi:namedview
     id="namedview11"
     pagecolor="#505050"
     bordercolor="#eeeeee"
     borderopacity="1"
     inkscape:showpageshadow="0"
     inkscape:pageopacity="0"
     inkscape:pagecheckerboard="0"
     inkscape:deskcolor="#505050"
     inkscape:zoom="0.10145692"
     inkscape:cx="1586.8804"
     inkscape:cy="1163.0552"
     inkscape:window-width="1400"
     inkscape:window-height="863"
     inkscape:window-x="472"
     inkscape:window-y="25"
     inkscape:window-maximized="0"
     inkscape:current-layer="svg11"
     showguides="true" />
  <rect
     fill="#262f47"
     width="3173.1072"
     height="3173.3569"
     id="rect1"
     x="-6"
     y="0"
     style="stroke-width:1.16832" />
  <g
     transform="matrix(6.8863644,0,0,6.8863644,363.40627,598.26878)"
     id="g11">
    <defs
       id="SvgjsDefs7328">
      <linearGradient
         id="SvgjsLinearGradient7335">
        <stop
           id="SvgjsStop7336"
           stop-color="#ef4136"
           offset="0" />
        <stop
           id="SvgjsStop7337"
           stop-color="#fbb040"
           offset="1" />
      </linearGradient>
      <linearGradient
         id="SvgjsLinearGradient7338">
        <stop
           id="SvgjsStop7339"
           stop-color="#ef4136"
           offset="0" />
        <stop
           id="SvgjsStop7340"
           stop-color="#fbb040"
           offset="1" />
      </linearGradient>
    </defs>
    <g
       id="SvgjsG7329"
       featureKey="symbolFeature-0"
       transform="matrix(0.1994302,0,0,0.1994302,105.19943,14.19943)"
       fill="#f5793b">
      <g
         id="g2">
        <title
           id="title1">background</title>
        <rect
           x="-1"
           y="-1"
           width="702"
           height="702"
           style="fill:none"
           id="rect2" />
      </g>
      <g
         id="g10">
        <title
           id="title2">Layer 1</title>
        <g
           id="g9">
          <g
             id="g3">
            <path
               d="m 222,158.3 c -31,0.7 -57.5,21 -79.5,60.8 -23.1,44.8 -34.5,94.6 -34.3,149.4 0.4,6.6 1.1,7.2 2.2,1.9 9.3,-40.3 19,-71.8 29.1,-94.6 9.9,-22.9 20.9,-41.7 32.9,-56.2 27.6,-32.1 51.5,-37.3 71.8,-15.6 22.2,25.6 34,68.8 35.4,129.4 -1.2,81.5 -11.9,143.1 -32.1,185 -25.3,51 -51.3,68 -77.7,50.8 -36,-28.7 -56,-92.3 -60,-190.6 -1.4,-3.4 -2.7,-0.9 -3.7,7.5 -1.9,10.2 -3.2,21.4 -4,33.3 -3,53.4 4.1,98.7 21.2,135.9 17.5,35.3 40.8,53.2 69.9,53.8 31.4,-0.5 60,-21 85.9,-61.7 25.8,-42.5 42.4,-94.3 49.7,-155.6 2.7,-65.2 -6.1,-120.7 -26.3,-166.5 -20.4,-43.6 -47.1,-66 -80,-67.2"
               id="path2" />
          </g>
          <g
             id="g4">
            <path
               d="M 452,134.1 C 435.9,107.7 405.1,94.8 359.6,95.6 309.3,98 260.4,113 213,140.6 c -5.5,3.6 -5.7,4.6 -0.6,2.9 39.6,-12.1 71.7,-19.5 96.4,-22.1 24.8,-2.9 46.5,-2.8 65.1,0.4 41.6,7.9 58.1,26 49.4,54.4 -11.1,32 -42.6,63.8 -94.4,95.4 C 257.7,311.3 199,332.9 152.7,336.3 95.8,339.9 68.2,325.9 69.9,294.4 77,248.8 122,199.7 205.1,147 c 2.2,-2.9 -0.6,-2.7 -8.3,0.6 -9.8,3.5 -20.1,7.9 -30.9,13.2 -47.7,24.1 -83.5,52.9 -107.1,86.3 -21.8,32.8 -25.7,62 -11.7,87.4 16.1,26.9 48.2,41.4 96.4,43.5 49.7,1.1 102.9,-10.4 159.6,-34.8 57.8,-30.3 101.5,-65.6 131,-106 27.6,-39.5 33.6,-73.8 18.2,-102.9"
               id="path3" />
          </g>
          <g
             id="g5">
            <path
               d="m 588,321.2 c 14.8,-27.2 10.6,-60.3 -12.9,-99.3 -27.3,-42.4 -64.7,-77.2 -112.3,-104.4 -5.9,-3 -6.8,-2.7 -2.8,0.9 30.3,28.2 52.7,52.4 67.4,72.4 14.9,20.1 25.7,38.9 32.2,56.6 14,40 6.5,63.3 -22.4,69.9 -33.3,6.4 -76.5,-5 -129.8,-34 C 337.5,241.5 289.4,201.4 263.2,163.1 231.7,115.6 230,84.7 258.1,70.4 301,53.6 366,68.1 453.2,113.8 c 3.6,0.4 2.1,-1.9 -4.7,-6.9 C 440.6,100.1 431.6,93.4 421.6,86.7 376.9,57.4 334.1,40.9 293.3,37.1 254,34.6 226.8,45.8 211.7,70.7 c -15.3,27.4 -11.8,62.5 10.5,105.2 23.9,43.6 60.5,83.9 109.9,120.8 55.1,34.9 107.6,55.1 157.3,60.4 48,4.1 80.8,-7.8 98.2,-35.7"
               id="path4" />
          </g>
          <g
             id="g6">
            <path
               d="m 494,532.5 c 31,-0.7 57.5,-21 79.5,-60.8 23.1,-44.8 34.5,-94.6 34.3,-149.4 -0.4,-6.6 -1.1,-7.2 -2.2,-1.9 -9.3,40.3 -19,71.8 -29.1,94.6 -9.9,22.9 -20.9,41.7 -32.9,56.2 -27.6,32.1 -51.5,37.3 -71.8,15.6 -22.2,-25.6 -34,-68.8 -35.4,-129.4 1.2,-81.5 11.9,-143.1 32.1,-185 25.3,-51 51.3,-68 77.7,-50.8 36,28.7 56,92.3 60,190.6 1.4,3.4 2.7,0.9 3.7,-7.5 1.9,-10.2 3.2,-21.4 4,-33.3 3,-53.4 -4.1,-98.7 -21.2,-135.9 -17.5,-35.3 -40.8,-53.2 -69.9,-53.8 -31.4,0.5 -60,21 -85.9,61.7 -25.8,42.5 -42.4,94.3 -49.7,155.6 -2.7,65.2 6.1,120.7 26.3,166.5 20.4,43.6 47.1,66 80,67.2"
               id="path5" />
          </g>
          <g
             id="g7">
            <path
               d="m 128,369.6 c -14.8,27.2 -10.6,60.3 12.9,99.3 27.3,42.4 64.7,77.2 112.3,104.4 5.9,3 6.8,2.7 2.8,-0.9 -30.3,-28.2 -52.7,-52.4 -67.4,-72.4 -14.9,-20.1 -25.7,-38.9 -32.2,-56.6 -14,-40 -6.5,-63.3 22.4,-69.9 33.3,-6.4 76.5,5 129.8,34 69.9,41.8 118,81.9 144.2,120.2 31.5,47.5 33.2,78.4 5.1,92.7 C 415,637.2 350,622.7 262.8,577 c -3.6,-0.4 -2.1,1.9 4.7,6.9 7.9,6.8 16.9,13.5 26.9,20.2 44.7,29.3 87.5,45.8 128.3,49.6 39.3,2.5 66.5,-8.7 81.6,-33.6 15.3,-27.4 11.8,-62.5 -10.5,-105.2 C 469.9,471.3 433.3,431 383.9,394.1 328.8,359.2 276.3,339 226.6,333.7 c -48,-4.1 -80.8,7.8 -98.2,35.7"
               id="path6" />
          </g>
          <g
             id="g8">
            <path
               d="m 264,556.7 c 16.1,26.4 46.9,39.3 92.4,38.5 50.3,-2.4 99.2,-17.4 146.6,-45 5.5,-3.6 5.7,-4.6 0.6,-2.9 -39.6,12.1 -71.7,19.5 -96.4,22.1 -24.8,2.9 -46.5,2.8 -65.1,-0.4 -41.6,-7.9 -58.1,-26 -49.4,-54.4 11.1,-32 42.6,-63.8 94.4,-95.4 71.2,-39.7 129.9,-61.3 176.2,-64.7 56.9,-3.6 84.5,10.4 82.8,41.9 -6.9,45.5 -51.9,94.6 -135.1,147.3 -2.2,2.9 0.6,2.7 8.3,-0.6 9.8,-3.5 20.1,-7.9 30.9,-13.2 47.7,-24.1 83.5,-52.9 107.1,-86.3 21.8,-32.8 25.7,-62 11.7,-87.4 -16.1,-26.9 -48.2,-41.4 -96.3,-43.5 -49.7,-1.1 -102.9,10.4 -159.6,34.8 -57.8,30.3 -101.5,65.6 -131,106 -27.6,39.5 -33.6,73.8 -18.2,102.9"
               id="path7" />
          </g>
        </g>
      </g>
    </g>
    <g
       id="SvgjsG7330"
       featureKey="nameFeature-0"
       transform="matrix(1.8980476,0,0,1.8980476,-1.1388293,136.69197)"
       fill="url(#SvgjsLinearGradient7335)"
       style="fill:url(#linearGradient27)">
      <path
         d="M 11.64,40 H 9.52 V 14.56 H 0.6 V 12.6 h 19.96 v 1.96 H 11.64 Z M 31.68,14.56 h -6.4 v 12.72 h 6.2 c 5.24,0 7.8,-2.8 7.8,-6.32 0,-3.6 -2.6,-6.4 -7.6,-6.4 z m -6.4,14.6 V 40 H 23.16 V 12.6 h 9 c 5.76,0 9.24,3.56 9.24,8.32 0,4.6 -3.68,8.24 -9.12,8.24 h -4 L 41.88,40 H 38.72 Z M 54.52,40.4 C 48.12,40.4 44,36.16 44,29.44 V 12.6 h 2.12 v 16.64 c 0,5.8 3.12,9.16 8.4,9.16 5.28,0 8.4,-3.36 8.4,-9.16 V 12.6 h 2.12 v 16.84 c 0,6.72 -4.12,10.96 -10.52,10.96 z m 24.32,0 c -6.4,0 -10.32,-2.84 -11,-8.6 h 2.12 c 0.52,4.32 3.72,6.68 8.88,6.64 5.12,0 7.84,-2.24 7.84,-5.88 0,-4.08 -4.08,-4.76 -8.32,-5.56 -4.56,-0.84 -9.32,-1.8 -9.32,-7.36 0,-4.36 3.6,-7.28 9.08,-7.28 5.84,0 9.56,3.08 9.88,7.88 H 85.92 C 85.6,17.16 83.12,14.32 78,14.32 c -4.4,0 -6.92,2.24 -6.92,5.36 0,3.92 3.88,4.6 8,5.36 4.72,0.88 9.72,1.8 9.72,7.6 0,4.28 -3.12,7.76 -9.96,7.76 z M 101.8,40 H 99.68 V 14.56 H 90.76 V 12.6 h 19.96 v 1.96 h -8.92 z m 24.88,-25.68 c -6.76,0 -12.04,5.08 -12.04,11.96 0,6.88 5.28,12.04 12.04,12.04 4.8,0 8.04,-2.2 10.2,-5.8 l 1.64,1.08 c -2.44,4.12 -6.28,6.72 -11.84,6.72 -7.8,0 -14.16,-5.92 -14.16,-14.04 0,-8.12 6.36,-14 14.16,-14 5.56,0 9.52,2.64 11.92,6.76 l -1.72,1.12 c -2.16,-3.64 -5.52,-5.84 -10.2,-5.84 z m 31.28,16.44 -6.04,-15.4 -6.08,15.4 z M 161.6,40 158.76,32.76 H 145.04 L 142.2,40 h -2.16 L 150.88,12.6 H 153 L 163.88,40 Z m 13.2,-25.44 h -6.4 v 12.72 h 6.2 c 5.24,0 7.8,-2.8 7.8,-6.32 0,-3.6 -2.6,-6.4 -7.6,-6.4 z m -6.4,14.6 V 40 h -2.12 V 12.6 h 9 c 5.76,0 9.24,3.56 9.24,8.32 0,4.6 -3.68,8.24 -9.12,8.24 h -4 L 185,40 h -3.16 z"
         id="path10"
         style="fill:url(#linearGradient26)" />
    </g>
    <g
       id="SvgjsG7331"
       featureKey="sloganFeature-0"
       transform="matrix(1.5401542,0,0,1.5401542,33.121012,220.45324)"
       fill="url(#SvgjsLinearGradient7338)"
       style="fill:url(#linearGradient29)">
      <path
         d="M 9.92,12.94 13.06,20 h -1.8 c -0.14,0 -0.32,-0.12 -0.38,-0.24 L 8.04,13.34 H 3.48 c -0.2,0 -0.38,0.18 -0.38,0.38 v 6.02 C 3.1,19.88 2.98,20 2.84,20 H 1.22 V 5.24 C 1.22,5.1 1.34,4.98 1.48,4.98 H 3.1 v 7.06 c 0.2,-0.24 0.58,-0.42 1,-0.42 h 4.22 c 0.84,0 1.52,-0.68 1.52,-1.52 V 5.24 c 0,-0.14 0.12,-0.26 0.28,-0.26 h 1.62 v 4.96 c 0,1.3 -0.74,2.44 -1.82,3 z M 18,20.08 c -1.88,0 -3.4,-1.52 -3.4,-3.4 V 4.98 h 1.62 c 0.14,0 0.26,0.12 0.26,0.26 v 11.6 c 0,0.84 0.68,1.52 1.52,1.52 h 4.52 c 0.84,0 1.52,-0.68 1.52,-1.52 V 5.24 c 0,-0.14 0.12,-0.26 0.26,-0.26 h 1.62 v 11.7 c 0,1.88 -1.54,3.4 -3.4,3.4 z m 18.68,-6.38 1.82,3.58 c -0.2,-1.56 -0.2,-2.82 -0.3,-4.24 v -7.8 c 0,-0.14 0.12,-0.26 0.26,-0.26 h 1.62 V 20 H 38.34 C 38.2,20 38.02,19.88 37.96,19.76 L 31.12,7.02 C 31.02,6.84 30.78,6.7 30.58,6.7 h -0.34 v 13.04 c 0,0.14 -0.12,0.26 -0.26,0.26 H 28.36 V 5.24 c 0,-0.14 0.12,-0.26 0.26,-0.26 h 2.28 c 0.64,0 1.4,0.46 1.7,1.02 z m 5.24,-8.72 h 10.64 v 1.46 c 0,0.14 -0.12,0.26 -0.26,0.26 h -4.28 v 13.04 c 0,0.14 -0.1,0.26 -0.26,0.26 H 46.14 V 6.7 H 41.66 V 5.24 c 0,-0.14 0.12,-0.26 0.26,-0.26 z M 62,20.08 h -4.52 c -1.88,0 -3.4,-1.52 -3.4,-3.4 V 8.3 c 0,-1.88 1.52,-3.4 3.4,-3.4 H 62 c 1.86,0 3.4,1.52 3.4,3.4 v 8.38 c 0,1.88 -1.54,3.4 -3.4,3.4 z M 57.48,6.62 c -0.84,0 -1.52,0.68 -1.52,1.52 v 8.7 c 0,0.84 0.68,1.52 1.52,1.52 H 62 c 0.84,0 1.52,-0.68 1.52,-1.52 V 8.14 C 63.52,7.3 62.84,6.62 62,6.62 Z m 9.74,-1.64 h 10.64 v 1.46 c 0,0.14 -0.12,0.26 -0.26,0.26 h -4.28 v 13.04 c 0,0.14 -0.1,0.26 -0.26,0.26 H 71.44 V 6.7 H 66.96 V 5.24 c 0,-0.14 0.12,-0.26 0.26,-0.26 z M 86.3,5.12 91.54,20 H 89.9 c -0.18,0 -0.32,-0.12 -0.36,-0.26 L 88.2,15.88 h -7.64 l -1.34,3.86 C 79.18,19.88 79.02,20 78.86,20 H 77.22 L 82.1,6.1 c 0.24,-0.66 0.86,-1.12 1.58,-1.12 h 2.38 c 0.1,0 0.2,0.06 0.24,0.14 z m -5.14,9.04 H 87.6 L 85,6.7 h -0.98 c -0.16,0 -0.3,0.1 -0.36,0.26 z M 95.02,12.8 h -0.04 v 6.94 c 0,0.14 -0.12,0.26 -0.26,0.26 H 93.1 V 6.14 c 0,-0.64 0.52,-1.16 1.16,-1.16 h 6.28 c 1.88,0 3.4,1.18 3.4,3.22 v 1.94 c 0,1.76 -1.26,2.72 -2.72,3.1 l 3.2,6.76 h -1.74 c -0.14,0 -0.3,-0.12 -0.36,-0.24 l -3.04,-6.42 h -2.56 -0.58 c -0.56,0 -0.98,-0.16 -1.12,-0.54 z m 0.34,-1.18 h 5.18 c 0.84,0 1.52,-0.68 1.52,-1.52 V 8.22 c 0,-0.84 -0.68,-1.52 -1.52,-1.52 h -5.18 c -0.22,0 -0.38,0.18 -0.38,0.38 v 4.16 c 0,0.22 0.18,0.38 0.38,0.38 z m 19.38,1.32 3.14,7.06 h -1.8 c -0.14,0 -0.32,-0.12 -0.38,-0.24 l -2.84,-6.42 h -4.56 c -0.2,0 -0.38,0.18 -0.38,0.38 v 6.02 c 0,0.14 -0.12,0.26 -0.26,0.26 h -1.62 V 5.24 c 0,-0.14 0.12,-0.26 0.26,-0.26 h 1.62 v 7.06 c 0.2,-0.24 0.58,-0.42 1,-0.42 h 4.22 c 0.84,0 1.52,-0.68 1.52,-1.52 V 5.24 c 0,-0.14 0.12,-0.26 0.28,-0.26 h 1.62 v 4.96 c 0,1.3 -0.74,2.44 -1.82,3 z m 12.8,-7.82 5.24,14.88 h -1.64 c -0.18,0 -0.32,-0.12 -0.36,-0.26 l -1.34,-3.86 h -7.64 l -1.34,3.86 c -0.04,0.14 -0.2,0.26 -0.36,0.26 h -1.64 l 4.88,-13.9 c 0.24,-0.66 0.86,-1.12 1.58,-1.12 h 2.38 c 0.1,0 0.2,0.06 0.24,0.14 z m -5.14,9.04 h 6.44 l -2.6,-7.46 h -0.98 c -0.16,0 -0.3,0.1 -0.36,0.26 z m 11.84,4.12 h 7.4 c 0.84,0 1.48,-0.68 1.48,-1.52 v -1.82 c 0,-0.2 -0.16,-0.42 -0.36,-0.48 l -7.68,-2.56 c -0.6,-0.2 -1.1,-0.88 -1.1,-1.52 V 8 c 0,-1.88 1.52,-3.02 3.4,-3.02 h 7.12 v 1.46 c 0,0.14 -0.1,0.26 -0.26,0.26 h -6.86 c -0.84,0 -1.54,0.54 -1.54,1.38 v 1.94 c 0,0.22 0.16,0.44 0.36,0.5 l 7.68,2.54 c 0.6,0.2 1.04,0.9 1.04,1.54 v 2.14 c 0,1.88 -1.42,3.26 -3.28,3.26 h -7.66 v -1.46 c 0,-0.16 0.12,-0.26 0.26,-0.26 z m 12.24,-13.3 h 10.64 v 1.46 c 0,0.14 -0.12,0.26 -0.26,0.26 h -4.28 v 13.04 c 0,0.14 -0.1,0.26 -0.26,0.26 H 150.7 V 6.7 h -4.48 V 5.24 c 0,-0.14 0.12,-0.26 0.26,-0.26 z m 15.6,15.1 c -1.88,0 -3.4,-1.52 -3.4,-3.4 V 4.98 h 1.62 c 0.14,0 0.26,0.12 0.26,0.26 v 11.6 c 0,0.84 0.68,1.52 1.52,1.52 h 4.52 c 0.84,0 1.52,-0.68 1.52,-1.52 V 5.24 c 0,-0.14 0.12,-0.26 0.26,-0.26 H 170 v 11.7 c 0,1.88 -1.54,3.4 -3.4,3.4 z m 10.26,-1.8 h 7.4 c 0.84,0 1.48,-0.68 1.48,-1.52 v -1.82 c 0,-0.2 -0.16,-0.42 -0.36,-0.48 l -7.68,-2.56 c -0.6,-0.2 -1.1,-0.88 -1.1,-1.52 V 8 c 0,-1.88 1.52,-3.02 3.4,-3.02 h 7.12 v 1.46 c 0,0.14 -0.1,0.26 -0.26,0.26 h -6.86 c -0.84,0 -1.54,0.54 -1.54,1.38 v 1.94 c 0,0.22 0.16,0.44 0.36,0.5 l 7.68,2.54 c 0.6,0.2 1.04,0.9 1.04,1.54 v 2.14 c 0,1.88 -1.42,3.26 -3.28,3.26 h -7.66 v -1.46 c 0,-0.16 0.12,-0.26 0.26,-0.26 z"
         id="path11"
         style="fill:url(#linearGradient28)" />
    </g>
  </g>
</svg>
